<svg width="241" height="213" viewBox="0 0 241 213" fill="none" xmlns="http://www.w3.org/2000/svg">
<path d="M120.5 0C54.0573 0 0 41.6893 0 92.9251C0 144.147 54.0573 185.822 120.5 185.822C128.811 185.822 137.181 185.141 145.433 183.808C150.257 191.127 163.628 206.801 192.135 212.915C192.4 212.972 192.679 213 192.944 213C194.15 213 195.298 212.447 196.004 211.482C196.886 210.319 196.96 208.745 196.18 207.496C187.928 194.219 185.516 180.006 184.869 171.481C220.068 154.346 241 125.139 241 92.9251C241 41.6893 186.943 0 120.5 0ZM120.5 7.26265C182.795 7.26265 233.469 45.6895 233.469 92.9251C233.469 122.969 213.229 150.303 179.323 166.02C177.97 166.658 177.131 168.02 177.205 169.467C177.543 176.843 179.147 190.12 185.589 203.666C162.672 196.418 153.17 182.503 150.64 178.048C149.963 176.871 148.698 176.162 147.33 176.162C147.109 176.162 146.874 176.19 146.639 176.233C138.019 177.779 129.223 178.559 120.5 178.559C58.2054 178.559 7.53125 140.147 7.53125 92.9251C7.53125 45.6895 58.2054 7.26265 120.5 7.26265ZM120.5 21.1638C68.6785 21.1638 26.5359 53.7465 26.5359 93.7904C26.5359 98.6841 27.1537 103.564 28.3893 108.301C28.8306 109.947 30.3604 111.039 32.0372 111.039C32.3461 111.039 32.6697 111.011 32.9786 110.926C34.9791 110.443 36.2 108.458 35.6999 106.514C34.6114 102.358 34.0671 98.0884 34.0671 93.7904C34.0671 57.7466 72.8413 28.4265 120.5 28.4265C135.813 28.4265 150.86 31.5046 164.011 37.3204C165.908 38.1573 168.144 37.3488 168.997 35.5189C169.865 33.7033 169.041 31.5472 167.158 30.7102C153.023 24.4689 136.886 21.1638 120.5 21.1638ZM180.956 39.3914C180 39.5332 179.103 40.0439 178.499 40.8524C177.279 42.4695 177.632 44.7391 179.323 45.9164C182.677 48.2853 185.825 50.8811 188.678 53.6188C189.399 54.3422 190.37 54.6969 191.341 54.6969C192.297 54.6969 193.268 54.3422 193.989 53.633C195.474 52.2145 195.474 49.9166 194.003 48.4981C190.9 45.4909 187.443 42.6397 183.751 40.0581C182.912 39.4623 181.912 39.2495 180.956 39.3914ZM201.358 60.4275C200.887 60.4985 200.402 60.6545 199.961 60.9098C198.181 61.9453 197.607 64.1724 198.681 65.8887C204.167 74.655 206.933 84.0312 206.933 93.7904C206.933 123.55 180.353 149.565 142.299 157.055C140.27 157.452 138.946 159.381 139.372 161.339C139.725 163.055 141.299 164.247 143.05 164.247C143.3 164.247 143.55 164.218 143.8 164.161C185.413 155.977 214.464 127.04 214.464 93.7904C214.464 82.6978 211.331 72.045 205.124 62.1439C204.315 60.8531 202.814 60.229 201.358 60.4275ZM75.3125 86.5277C71.1497 86.5277 67.7812 89.776 67.7812 93.7904C67.7812 97.8047 71.1497 101.053 75.3125 101.053C79.4753 101.053 82.8438 97.8047 82.8438 93.7904C82.8438 89.776 79.4753 86.5277 75.3125 86.5277ZM120.5 86.5277C116.337 86.5277 112.969 89.776 112.969 93.7904C112.969 97.8047 116.337 101.053 120.5 101.053C124.663 101.053 128.031 97.8047 128.031 93.7904C128.031 89.776 124.663 86.5277 120.5 86.5277ZM165.688 86.5277C161.525 86.5277 158.156 89.776 158.156 93.7904C158.156 97.8047 161.525 101.053 165.688 101.053C169.85 101.053 173.219 97.8047 173.219 93.7904C173.219 89.776 169.85 86.5277 165.688 86.5277ZM48.7472 118.529C47.8058 118.373 46.7761 118.543 45.9377 119.125L39.7597 123.295C38.0534 124.43 37.6415 126.699 38.833 128.345C39.5538 129.352 40.7305 129.891 41.9073 129.891C42.6575 129.891 43.4077 129.678 44.0696 129.238L50.2476 125.068C51.9391 123.933 52.3657 121.664 51.1743 120.018C50.5859 119.21 49.6886 118.685 48.7472 118.529ZM61.7062 133.168C60.7354 133.253 59.8087 133.692 59.1321 134.458L54.2927 140.005C52.9541 141.537 53.16 143.835 54.7487 145.125C55.4547 145.693 56.3226 145.977 57.1757 145.977C58.2495 145.977 59.3086 145.537 60.0588 144.686L64.8982 139.125C66.2368 137.593 66.0455 135.295 64.4422 134.004C63.6479 133.366 62.6624 133.097 61.7062 133.168ZM79.5635 143.877C78.0926 143.82 76.6658 144.601 76.0186 145.948L72.8266 152.53C71.944 154.36 72.7531 156.516 74.6359 157.367C75.1507 157.594 75.6949 157.707 76.2392 157.707C77.6513 157.707 79.0046 156.927 79.6518 155.622L82.8438 149.04C83.7116 147.225 82.9026 145.054 81.0198 144.218C80.5491 144.005 80.049 143.891 79.5635 143.877ZM99.7744 149.92C97.6856 149.551 95.7734 150.884 95.4056 152.856L94.0818 160.02C93.7141 161.991 95.082 163.878 97.1414 164.218C97.362 164.261 97.5826 164.275 97.7886 164.275C99.5831 164.275 101.172 163.041 101.495 161.296L102.819 154.133C103.187 152.147 101.819 150.275 99.7744 149.92ZM119.397 150.757C117.337 150.941 115.808 152.7 115.984 154.7L116.631 161.934C116.808 163.821 118.441 165.24 120.382 165.24C120.485 165.24 120.603 165.24 120.721 165.225C122.78 165.055 124.31 163.31 124.133 161.31L123.486 154.062C123.31 152.076 121.559 150.544 119.397 150.757Z" fill="#7F3FBF"/>
</svg>
