<svg width="25" height="28" viewBox="0 0 25 28" fill="none" xmlns="http://www.w3.org/2000/svg">
<path d="M10.9199 14H23.9199" stroke="white" stroke-width="2" stroke-linecap="round" stroke-linejoin="round"/>
<path d="M18.9299 23V26H2.92993V2H18.9299V5H20.9299V1C20.9299 0.734784 20.8246 0.48043 20.637 0.292893C20.4495 0.105357 20.1951 0 19.9299 0H1.92993C1.66472 0 1.41036 0.105357 1.22283 0.292893C1.03529 0.48043 0.929932 0.734784 0.929932 1V27C0.929932 27.2652 1.03529 27.5196 1.22283 27.7071C1.41036 27.8946 1.66472 28 1.92993 28H19.9299C20.1951 28 20.4495 27.8946 20.637 27.7071C20.8246 27.5196 20.9299 27.2652 20.9299 27V23H18.9299Z" fill="white"/>
<path d="M23.9199 14L19.9199 18" stroke="white" stroke-width="2" stroke-linecap="round" stroke-linejoin="round"/>
<path d="M23.9199 14L19.9199 10" stroke="white" stroke-width="2" stroke-linecap="round" stroke-linejoin="round"/>
<path d="M19.9199 6.09V4.09" stroke="white" stroke-width="2" stroke-linecap="round" stroke-linejoin="round"/>
<path d="M19.9199 24V22" stroke="white" stroke-width="2" stroke-linecap="round" stroke-linejoin="round"/>
</svg>
