<svg width="68" height="64" viewBox="0 0 68 64" fill="none" xmlns="http://www.w3.org/2000/svg">
<path d="M33.9507 2.19753C27.5873 2.19753 21.3669 3.95265 16.0759 7.24096C10.785 10.5293 6.66122 15.2031 4.22607 20.6713C1.79092 26.1395 1.15377 32.1567 2.3952 37.9617C3.63663 43.7668 6.70088 49.0991 11.2005 53.2843C15.7 57.4695 21.4328 60.3197 27.6739 61.4744C33.915 62.6291 40.3841 62.0364 46.2631 59.7714C52.142 57.5064 57.1669 53.6707 60.7022 48.7494C64.2375 43.8281 66.1244 38.0422 66.1244 32.1235C66.1244 24.1866 62.7347 16.5748 56.701 10.9626C50.6672 5.35043 42.4837 2.19753 33.9507 2.19753ZM33.9507 59.5556C28.1176 59.5556 22.4155 57.9467 17.5655 54.9324C12.7155 51.9181 8.93535 47.6338 6.70312 42.6213C4.4709 37.6087 3.88685 32.093 5.02483 26.7717C6.1628 21.4504 8.9717 16.5625 13.0963 12.726C17.2209 8.88958 22.476 6.27693 28.197 5.21846C33.918 4.15998 39.848 4.70323 45.237 6.7795C50.6261 8.85577 55.2322 12.3718 58.4729 16.883C61.7136 21.3942 63.4433 26.6979 63.4433 32.1235C63.4433 39.3989 60.336 46.3764 54.8051 51.5209C49.2742 56.6654 41.7726 59.5556 33.9507 59.5556Z" fill="black"/>
<path d="M33.9507 32.6347C29.3287 32.6347 24.896 34.3425 21.6277 37.3825C18.3594 40.4224 16.5233 44.5454 16.5233 48.8446C16.5233 49.1753 16.6646 49.4924 16.916 49.7263C17.1674 49.9601 17.5083 50.0915 17.8639 50.0915C18.2194 50.0915 18.5604 49.9601 18.8118 49.7263C19.0632 49.4924 19.2045 49.1753 19.2045 48.8446C19.2045 45.2068 20.7581 41.7181 23.5235 39.1459C26.289 36.5736 30.0398 35.1285 33.9507 35.1285C37.8617 35.1285 41.6125 36.5736 44.3779 39.1459C47.1434 41.7181 48.697 45.2068 48.697 48.8446C48.697 49.1753 48.8383 49.4924 49.0897 49.7263C49.3411 49.9601 49.6821 50.0915 50.0376 50.0915C50.3931 50.0915 50.7341 49.9601 50.9855 49.7263C51.2369 49.4924 51.3782 49.1753 51.3782 48.8446C51.3782 46.7159 50.9274 44.608 50.0516 42.6413C49.1758 40.6746 47.8921 38.8877 46.2738 37.3825C44.6555 35.8772 42.7343 34.6832 40.6199 33.8686C38.5055 33.054 36.2393 32.6347 33.9507 32.6347Z" fill="black"/>
<path d="M33.9506 30.5149C35.1843 30.4843 36.3993 30.2276 37.5261 29.7595C38.6529 29.2915 39.6694 28.6214 40.5174 27.7874C41.3654 26.9535 42.0282 25.9722 42.4679 24.8997C42.9077 23.8272 43.1156 22.6845 43.0799 21.5372C43.1174 20.3888 42.9108 19.2448 42.4719 18.1708C42.033 17.0969 41.3704 16.1141 40.5223 15.2788C39.6741 14.4436 38.657 13.7723 37.5293 13.3035C36.4016 12.8347 35.1854 12.5776 33.9506 12.5469C32.7158 12.5776 31.4997 12.8347 30.372 13.3035C29.2443 13.7723 28.2272 14.4436 27.379 15.2788C26.5308 16.1141 25.8683 17.0969 25.4294 18.1708C24.9905 19.2448 24.7838 20.3888 24.8213 21.5372C24.7856 22.6845 24.9936 23.8272 25.4333 24.8997C25.873 25.9722 26.5359 26.9535 27.3838 27.7874C28.2318 28.6214 29.2484 29.2915 30.3752 29.7595C31.502 30.2276 32.717 30.4843 33.9506 30.5149ZM33.9506 15.0407C34.8334 15.0712 35.701 15.2637 36.5035 15.6071C37.3061 15.9506 38.0277 16.4381 38.627 17.0419C39.2262 17.6456 39.6912 18.3535 39.9953 19.125C40.2994 19.8965 40.4365 20.7162 40.3988 21.5372C40.4347 22.3571 40.2962 23.1755 39.9913 23.9455C39.6864 24.7155 39.2211 25.422 38.622 26.0244C38.023 26.6268 37.302 27.1132 36.5003 27.4559C35.6987 27.7985 34.8322 27.9906 33.9506 28.0211C33.069 27.9906 32.2026 27.7985 31.4009 27.4559C30.5993 27.1132 29.8783 26.6268 29.2792 26.0244C28.6802 25.422 28.2148 24.7155 27.9099 23.9455C27.6051 23.1755 27.4666 22.3571 27.5025 21.5372C27.4648 20.7162 27.6019 19.8965 27.906 19.125C28.21 18.3535 28.6751 17.6456 29.2743 17.0419C29.8735 16.4381 30.5952 15.9506 31.3977 15.6071C32.2002 15.2637 33.0678 15.0712 33.9506 15.0407Z" fill="black"/>
</svg>
