<svg width="25" height="27" viewBox="0 0 25 27" fill="none" xmlns="http://www.w3.org/2000/svg">
<path d="M14.9094 0C9.39961 0 4.93594 4.80703 4.93594 10.7406C4.93594 13.3055 5.76875 15.657 7.16016 17.5055L0.304688 24.8883C-0.101562 25.3258 -0.101562 26.0312 0.304688 26.4688C0.710938 26.9062 1.36602 26.9062 1.77227 26.4688L8.62773 19.0859C10.3441 20.5844 12.5277 21.4813 14.9094 21.4813C20.4191 21.4813 24.8828 16.6742 24.8828 10.7406C24.8828 4.80703 20.4141 0 14.9094 0ZM14.9094 19.25C10.5473 19.25 7.00781 15.4383 7.00781 10.7406C7.00781 6.04297 10.5473 2.23125 14.9094 2.23125C19.2715 2.23125 22.8109 6.04297 22.8109 10.7406C22.8109 15.4383 19.2715 19.25 14.9094 19.25Z" fill="#7F3FBF"/>
</svg>
