<svg width="66" height="63" viewBox="0 0 66 63" fill="none" xmlns="http://www.w3.org/2000/svg">
<path d="M32.743 1.24691C26.5261 1.24691 20.4488 3.00204 15.2797 6.29034C10.1105 9.57864 6.08163 14.2524 3.70253 19.7207C1.32343 25.1889 0.700953 31.206 1.91381 37.0111C3.12666 42.8162 6.12038 48.1484 10.5164 52.3337C14.9124 56.5189 20.5132 59.369 26.6107 60.5237C32.7081 61.6784 39.0283 61.0858 44.7719 58.8208C50.5156 56.5558 55.4248 52.7201 58.8787 47.7988C62.3326 42.8775 64.1761 37.0916 64.1761 31.1728C64.1761 23.236 60.8644 15.6242 54.9696 10.012C49.0747 4.39981 41.0796 1.24691 32.743 1.24691ZM32.743 58.6049C27.0442 58.6049 21.4733 56.9961 16.7349 53.9818C11.9965 50.9675 8.30341 46.6832 6.12257 41.6707C3.94173 36.6581 3.37112 31.1424 4.4829 25.8211C5.59469 20.4998 8.33893 15.6119 12.3686 11.7754C16.3983 7.93897 21.5324 5.32631 27.1217 4.26784C32.711 3.20936 38.5045 3.75261 43.7695 5.82888C49.0345 7.90515 53.5346 11.4212 56.7007 15.9324C59.8668 20.4436 61.5567 25.7473 61.5567 31.1728C61.5567 38.4483 58.521 45.4257 53.1173 50.5703C47.7137 55.7148 40.3848 58.6049 32.743 58.6049Z" fill="white"/>
<path d="M32.7428 31.6841C28.2272 31.6841 23.8965 33.3919 20.7034 36.4318C17.5104 39.4718 15.7166 43.5948 15.7166 47.894C15.7166 48.2247 15.8545 48.5418 16.1002 48.7757C16.3458 49.0095 16.6789 49.1409 17.0263 49.1409C17.3736 49.1409 17.7068 49.0095 17.9524 48.7757C18.198 48.5418 18.336 48.2247 18.336 47.894C18.336 44.2562 19.8538 40.7675 22.5557 38.1952C25.2575 35.623 28.9219 34.1779 32.7428 34.1779C36.5638 34.1779 40.2282 35.623 42.93 38.1952C45.6318 40.7675 47.1497 44.2562 47.1497 47.894C47.1497 48.2247 47.2877 48.5418 47.5333 48.7757C47.7789 49.0095 48.112 49.1409 48.4594 49.1409C48.8068 49.1409 49.1399 49.0095 49.3855 48.7757C49.6311 48.5418 49.7691 48.2247 49.7691 47.894C49.7691 45.7652 49.3287 43.6574 48.4731 41.6907C47.6174 39.724 46.3633 37.9371 44.7822 36.4318C43.2012 34.9266 41.3242 33.7326 39.2585 32.918C37.1928 32.1034 34.9788 31.6841 32.7428 31.6841Z" fill="white"/>
<path d="M32.743 29.5643C33.9482 29.5336 35.1352 29.2769 36.2361 28.8089C37.337 28.3409 38.3301 27.6707 39.1586 26.8368C39.9871 26.0029 40.6346 25.0216 41.0642 23.9491C41.4938 22.8766 41.697 21.7339 41.6621 20.5865C41.6987 19.4381 41.4969 18.2942 41.0681 17.2202C40.6393 16.1463 39.992 15.1635 39.1633 14.3282C38.3347 13.493 37.341 12.8217 36.2392 12.3529C35.1375 11.8841 33.9493 11.627 32.743 11.5963C31.5366 11.627 30.3485 11.8841 29.2467 12.3529C28.1449 12.8217 27.1512 13.493 26.3226 14.3282C25.4939 15.1635 24.8466 16.1463 24.4178 17.2202C23.989 18.2942 23.7872 19.4381 23.8238 20.5865C23.7889 21.7339 23.9921 22.8766 24.4217 23.9491C24.8513 25.0216 25.4989 26.0029 26.3273 26.8368C27.1558 27.6707 28.1489 28.3409 29.2498 28.8089C30.3507 29.2769 31.5377 29.5336 32.743 29.5643ZM32.743 14.0901C33.6054 14.1206 34.4531 14.3131 35.2371 14.6565C36.0212 14.9999 36.7262 15.4875 37.3116 16.0913C37.8971 16.695 38.3514 17.4029 38.6485 18.1744C38.9456 18.9459 39.0795 19.7656 39.0427 20.5865C39.0778 21.4064 38.9425 22.2249 38.6446 22.9949C38.3467 23.7649 37.8921 24.4714 37.3068 25.0738C36.7216 25.6762 36.0171 26.1626 35.234 26.5053C34.4508 26.8479 33.6043 27.04 32.743 27.0705C31.8816 27.04 31.0351 26.8479 30.2519 26.5053C29.4688 26.1626 28.7644 25.6762 28.1791 25.0738C27.5938 24.4714 27.1392 23.7649 26.8413 22.9949C26.5434 22.2249 26.4082 21.4064 26.4432 20.5865C26.4064 19.7656 26.5404 18.9459 26.8374 18.1744C27.1345 17.4029 27.5888 16.695 28.1743 16.0913C28.7597 15.4875 29.4647 14.9999 30.2488 14.6565C31.0329 14.3131 31.8805 14.1206 32.743 14.0901Z" fill="white"/>
</svg>
