<svg width="45" height="48" viewBox="0 0 45 48" fill="none" xmlns="http://www.w3.org/2000/svg">
<path d="M22.5 48C20.5108 48 18.6032 47.222 17.1967 45.8371C15.7902 44.4522 15 42.5739 15 40.6154C15 40.1258 15.1975 39.6562 15.5492 39.31C15.9008 38.9637 16.3777 38.7692 16.875 38.7692H28.1249C28.6222 38.7692 29.0991 38.9637 29.4508 39.31C29.8024 39.6562 29.9999 40.1258 29.9999 40.6154C29.9999 42.5739 29.2098 44.4522 27.8032 45.8371C26.3967 47.222 24.4891 48 22.5 48ZM19.2562 42.4615C19.5859 43.0211 20.059 43.4855 20.6283 43.8084C21.1976 44.1312 21.843 44.3011 22.5 44.3011C23.1569 44.3011 23.8024 44.1312 24.3716 43.8084C24.9409 43.4855 25.4141 43.0211 25.7437 42.4615H19.2562Z" fill="white"/>
<path d="M26.25 7.38462H18.75C18.2527 7.38462 17.7758 7.19011 17.4242 6.84389C17.0725 6.49767 16.875 6.02809 16.875 5.53846C16.875 4.06957 17.4676 2.66084 18.5225 1.62218C19.5774 0.583515 21.0081 0 22.5 0C23.9918 0 25.4225 0.583515 26.4774 1.62218C27.5323 2.66084 28.1249 4.06957 28.1249 5.53846C28.1249 6.02809 27.9274 6.49767 27.5758 6.84389C27.2241 7.19011 26.7472 7.38462 26.25 7.38462Z" fill="white"/>
<path d="M43.1248 42.4615H1.87499C1.37772 42.4615 0.900805 42.267 0.549176 41.9208C0.197547 41.5746 3.95823e-06 41.105 3.95823e-06 40.6154C-0.00164041 38.5304 0.509076 36.4761 1.48857 34.6276C2.46806 32.7791 3.88723 31.1914 5.62498 30V20.3077C5.62488 15.9201 7.38731 11.7107 10.5277 8.59783C13.6681 5.48501 17.9314 3.72156 22.3874 3.69231H22.5936C27.0691 3.69231 31.3613 5.44285 34.526 8.55884C37.6907 11.6748 39.4686 15.901 39.4686 20.3077V30C41.189 31.2016 42.59 32.7937 43.5528 34.6416C44.5156 36.4894 45.012 38.5386 44.9998 40.6154C44.9998 41.105 44.8022 41.5746 44.4506 41.9208C44.099 42.267 43.6221 42.4615 43.1248 42.4615ZM3.93748 38.7692H41.0623C40.7967 37.4893 40.2583 36.2795 39.4826 35.2197C38.7068 34.16 37.7115 33.2744 36.5623 32.6215C36.2762 32.4589 36.0388 32.2247 35.8742 31.9426C35.7095 31.6606 35.6235 31.3407 35.6248 31.0154V20.3077C35.6248 16.8803 34.242 13.5932 31.7806 11.1697C29.3192 8.74615 25.9808 7.38461 22.4999 7.38461C19.0189 7.38461 15.6806 8.74615 13.2192 11.1697C10.7578 13.5932 9.37496 16.8803 9.37496 20.3077V31.0154C9.37627 31.3407 9.29025 31.6606 9.12562 31.9426C8.96099 32.2247 8.72359 32.4589 8.43746 32.6215C7.28829 33.2744 6.29295 34.16 5.51722 35.2197C4.74149 36.2795 4.20305 37.4893 3.93748 38.7692Z" fill="white"/>
</svg>
